<svg width="1920" height="1025" viewBox="0 0 1920 1025" fill="none" xmlns="http://www.w3.org/2000/svg">
<g clip-path="url(#clip0_8_29)">
<rect width="1920" height="1025" fill="white"/>
<rect width="1920" height="1320" fill="#F5F8FA"/>
<rect x="-273" y="-511" width="2283" height="2283" rx="30" fill="url(#paint0_linear_8_29)"/>
<rect x="-273" y="-410" width="2081" height="2081" rx="30" fill="url(#paint1_linear_8_29)"/>
<rect x="-273" y="-280" width="1821" height="1821" rx="30" fill="url(#paint2_linear_8_29)"/>
<rect x="-273" y="-149" width="1565" height="1565" rx="30" fill="url(#paint3_linear_8_29)"/>
<rect x="-273" y="-149" width="1307.5" height="1307.5" rx="30" fill="url(#paint4_linear_8_29)"/>
<rect x="-273" y="-149" width="1043.82" height="1043.82" rx="30" fill="url(#paint5_linear_8_29)"/>
<path d="M-273 41.0001C-273 -63.934 -187.934 -149 -83 -149L509.319 -149L509.319 443.319C509.319 548.253 424.253 633.319 319.319 633.319L-273 633.319L-273 41.0001Z" fill="url(#paint6_linear_8_29)"/>
<rect x="-273" y="-149" width="522" height="522" rx="261" fill="url(#paint7_linear_8_29)"/>
</g>
<defs>
<linearGradient id="paint0_linear_8_29" x1="-273" y1="1056.71" x2="-273" y2="-198.335" gradientUnits="userSpaceOnUse">
<stop stop-color="#E6E9EB" stop-opacity="0.7"/>
<stop offset="0.505208" stop-color="#F5F8FA" stop-opacity="0.85"/>
<stop offset="1" stop-color="white"/>
</linearGradient>
<linearGradient id="paint1_linear_8_29" x1="-273" y1="1019" x2="-273" y2="-125" gradientUnits="userSpaceOnUse">
<stop stop-color="#E6E9EB" stop-opacity="0.7"/>
<stop offset="0.505208" stop-color="#F5F8FA" stop-opacity="0.85"/>
<stop offset="1" stop-color="white"/>
</linearGradient>
<linearGradient id="paint2_linear_8_29" x1="-273" y1="970.461" x2="-273" y2="-30.6079" gradientUnits="userSpaceOnUse">
<stop stop-color="#E6E9EB" stop-opacity="0.7"/>
<stop offset="0.505208" stop-color="#F5F8FA" stop-opacity="0.85"/>
<stop offset="1" stop-color="white"/>
</linearGradient>
<linearGradient id="paint3_linear_8_29" x1="-273" y1="925.668" x2="-273" y2="65.332" gradientUnits="userSpaceOnUse">
<stop stop-color="#E6E9EB" stop-opacity="0.7"/>
<stop offset="0.505208" stop-color="#F5F8FA" stop-opacity="0.85"/>
<stop offset="1" stop-color="white"/>
</linearGradient>
<linearGradient id="paint4_linear_8_29" x1="-273" y1="748.844" x2="-273" y2="30.0661" gradientUnits="userSpaceOnUse">
<stop stop-color="#E6E9EB" stop-opacity="0.7"/>
<stop offset="0.505208" stop-color="#F5F8FA" stop-opacity="0.85"/>
<stop offset="1" stop-color="white"/>
</linearGradient>
<linearGradient id="paint5_linear_8_29" x1="-273" y1="567.779" x2="-273" y2="-6.04558" gradientUnits="userSpaceOnUse">
<stop stop-color="#E6E9EB" stop-opacity="0.7"/>
<stop offset="0.505208" stop-color="#F5F8FA" stop-opacity="0.85"/>
<stop offset="1" stop-color="white"/>
</linearGradient>
<linearGradient id="paint6_linear_8_29" x1="-273" y1="388.21" x2="-273" y2="-41.8588" gradientUnits="userSpaceOnUse">
<stop stop-color="#E6E9EB" stop-opacity="0.7"/>
<stop offset="0.505208" stop-color="#F5F8FA" stop-opacity="0.85"/>
<stop offset="1" stop-color="white"/>
</linearGradient>
<linearGradient id="paint7_linear_8_29" x1="-273" y1="209.452" x2="-273" y2="-77.5103" gradientUnits="userSpaceOnUse">
<stop stop-color="#E6E9EB" stop-opacity="0.7"/>
<stop offset="0.505208" stop-color="#F5F8FA" stop-opacity="0.85"/>
<stop offset="1" stop-color="white"/>
</linearGradient>
<clipPath id="clip0_8_29">
<rect width="1920" height="1025" fill="white"/>
</clipPath>
</defs>
</svg>
